<svg width="128" height="28" viewBox="0 0 128 28" fill="none" xmlns="http://www.w3.org/2000/svg">
<path d="M3.80351 17.627C5.7515 17.627 7.33065 16.0479 7.33065 14.0999C7.33065 12.1519 5.7515 10.5728 3.80351 10.5728C1.85552 10.5728 0.276367 12.1519 0.276367 14.0999C0.276367 16.0479 1.85552 17.627 3.80351 17.627Z" fill="black"/>
<path d="M19.0872 2.34277C15.969 2.34277 12.9785 3.58147 10.7737 5.78635C8.56876 7.99123 7.33008 10.9817 7.33008 14.0999C7.33008 17.2181 8.56876 20.2085 10.7737 22.4134C12.9785 24.6184 15.969 25.8571 19.0872 25.8571L19.0872 14.0999V2.34277Z" fill="black"/>
<path d="M30.845 2.34277C27.7268 2.34277 24.7364 3.58147 22.5315 5.78635C20.3266 7.99123 19.0879 10.9817 19.0879 14.0999C19.0879 17.2181 20.3266 20.2085 22.5315 22.4134C24.7364 24.6184 27.7268 25.8571 30.845 25.8571L30.845 14.0999V2.34277Z" fill="black"/>
<path d="M34.3719 17.627C36.3199 17.627 37.899 16.0479 37.899 14.0999C37.899 12.1519 36.3199 10.5728 34.3719 10.5728C32.4239 10.5728 30.8447 12.1519 30.8447 14.0999C30.8447 16.0479 32.4239 17.627 34.3719 17.627Z" fill="black"/>
<path d="M49.4846 11.7487H46.7031V3.54005H49.541C50.356 3.54005 51.0558 3.70439 51.6413 4.03305C52.2292 4.35904 52.6806 4.828 52.9957 5.4399C53.3113 6.05182 53.4688 6.78396 53.4688 7.63636C53.4688 8.49143 53.3099 9.22625 52.992 9.84082C52.6764 10.4554 52.2212 10.927 51.6253 11.2557C51.0318 11.5844 50.3184 11.7487 49.4846 11.7487ZM48.1904 10.4621H49.4126C49.9845 10.4621 50.4614 10.3579 50.8437 10.1494C51.2256 9.93836 51.5129 9.6244 51.7053 9.20754C51.8976 8.78799 51.994 8.26428 51.994 7.63636C51.994 7.00843 51.8976 6.48736 51.7053 6.07318C51.5129 5.65636 51.2284 5.34504 50.8517 5.13929C50.4774 4.93087 50.0127 4.82666 49.4568 4.82666H48.1904V10.4621ZM60.7357 5.59221V6.7145H57.0962V5.59221H60.7357ZM58.0062 11.7487V5.01103C58.0062 4.59686 58.0918 4.25216 58.2625 3.97694C58.436 3.70171 58.6688 3.49596 58.9599 3.35969C59.251 3.22341 59.5746 3.15527 59.9301 3.15527C60.1812 3.15527 60.4041 3.17532 60.5993 3.21539C60.7945 3.25548 60.9384 3.29155 61.032 3.32362L60.7437 4.44589C60.6821 4.42718 60.6045 4.40848 60.5109 4.38977C60.4178 4.3684 60.3134 4.35771 60.1986 4.35771C59.9287 4.35771 59.7377 4.42318 59.6254 4.55411C59.5158 4.68237 59.4608 4.86674 59.4608 5.10723V11.7487H58.0062ZM64.3259 11.8689C63.7244 11.8689 63.2038 11.7366 62.7626 11.4721C62.322 11.2076 61.9796 10.8375 61.7365 10.3619C61.4962 9.88625 61.3758 9.33047 61.3758 8.6945C61.3758 8.05853 61.4962 7.50139 61.7365 7.02311C61.9796 6.54482 62.322 6.17339 62.7626 5.90886C63.2038 5.64432 63.7244 5.51205 64.3259 5.51205C64.9269 5.51205 65.448 5.64432 65.8891 5.90886C66.3297 6.17339 66.6707 6.54482 66.911 7.02311C67.1542 7.50139 67.276 8.05853 67.276 8.6945C67.276 9.33047 67.1542 9.88625 66.911 10.3619C66.6707 10.8375 66.3297 11.2076 65.8891 11.4721C65.448 11.7366 64.9269 11.8689 64.3259 11.8689ZM64.3339 10.7066C64.6598 10.7066 64.9325 10.617 65.1517 10.438C65.3704 10.2563 65.5336 10.0132 65.6403 9.70853C65.7499 9.40393 65.8049 9.06457 65.8049 8.6905C65.8049 8.31371 65.7499 7.97304 65.6403 7.66843C65.5336 7.36115 65.3704 7.11665 65.1517 6.93493C64.9325 6.75321 64.6598 6.6624 64.3339 6.6624C64 6.6624 63.722 6.75321 63.5 6.93493C63.2809 7.11665 63.1168 7.36115 63.0072 7.66843C62.9004 7.97304 62.8468 8.31371 62.8468 8.6905C62.8468 9.06457 62.9004 9.40393 63.0072 9.70853C63.1168 10.0132 63.2809 10.2563 63.5 10.438C63.722 10.617 64 10.7066 64.3339 10.7066ZM68.5072 11.7487V5.59221H69.9143V6.61828H69.9782C70.0906 6.26289 70.283 5.98899 70.5553 5.79665C70.8309 5.60156 71.1445 5.50403 71.4972 5.50403C71.5777 5.50403 71.667 5.50804 71.7658 5.51606C71.8674 5.5214 71.9515 5.53075 72.0183 5.54411V6.87882C71.9567 6.85742 71.8594 6.83875 71.7258 6.82272C71.5951 6.804 71.4681 6.79464 71.3449 6.79464C71.0806 6.79464 70.8426 6.85211 70.6315 6.967C70.4231 7.07921 70.259 7.23553 70.1386 7.43592C70.0182 7.63636 69.958 7.8675 69.958 8.12936V11.7487H68.5072ZM49.4846 24.9167H46.7031V16.7081H49.541C50.356 16.7081 51.0558 16.8724 51.6413 17.2011C52.2292 17.527 52.6806 17.996 52.9957 18.6079C53.3113 19.2198 53.4688 19.952 53.4688 20.8044C53.4688 21.6594 53.3099 22.3943 52.992 23.0088C52.6764 23.6234 52.2212 24.095 51.6253 24.4237C51.0318 24.7524 50.3184 24.9167 49.4846 24.9167ZM48.1904 23.6301H49.4126C49.9845 23.6301 50.4614 23.5259 50.8437 23.3174C51.2256 23.1064 51.5129 22.7924 51.7053 22.3755C51.8976 21.956 51.994 21.4323 51.994 20.8044C51.994 20.1764 51.8976 19.6554 51.7053 19.2412C51.5129 18.8244 51.2284 18.513 50.8517 18.3073C50.4774 18.0989 50.0127 17.9946 49.4568 17.9946H48.1904V23.6301ZM57.5429 25.0369C56.9259 25.0369 56.3926 24.9087 55.944 24.6521C55.4977 24.393 55.1543 24.0269 54.9136 23.5539C54.6732 23.0783 54.5529 22.5185 54.5529 21.8745C54.5529 21.2413 54.6732 20.6854 54.9136 20.2071C55.1567 19.7262 55.4962 19.3521 55.9317 19.0849C56.3672 18.815 56.8789 18.68 57.4667 18.68C57.8463 18.68 58.2046 18.7415 58.5409 18.8644C58.8804 18.9847 59.1795 19.1717 59.4391 19.4256C59.7006 19.6794 59.9066 20.0027 60.0561 20.3955C60.2057 20.7856 60.2805 21.2506 60.2805 21.7904V22.2352H55.2343V21.2573H58.8898C58.887 20.9794 58.8268 20.7322 58.7092 20.5157C58.5917 20.2966 58.4275 20.1243 58.2164 19.9987C58.008 19.8731 57.7649 19.8103 57.487 19.8103C57.1902 19.8103 56.9297 19.8825 56.7053 20.0268C56.481 20.1684 56.3061 20.3554 56.1805 20.5879C56.0573 20.8177 55.9947 21.0702 55.9919 21.3454V22.1992C55.9919 22.5573 56.0573 22.8645 56.1885 23.121C56.3192 23.3749 56.5022 23.57 56.7373 23.7062C56.9725 23.8398 57.2476 23.9066 57.5632 23.9066C57.7743 23.9066 57.9652 23.8773 58.1364 23.8185C58.3071 23.757 58.4557 23.6675 58.5813 23.5499C58.7069 23.4324 58.8014 23.2867 58.8658 23.113L60.2203 23.2653C60.1351 23.6234 59.972 23.936 59.7316 24.2033C59.4937 24.4678 59.1889 24.6735 58.8179 24.8205C58.4463 24.9648 58.0212 25.0369 57.5429 25.0369ZM66.374 20.3875L65.0515 20.5318C65.0139 20.3982 64.9485 20.2726 64.8549 20.155C64.7642 20.0375 64.641 19.9426 64.4862 19.8705C64.331 19.7983 64.1415 19.7623 63.9172 19.7623C63.6153 19.7623 63.3613 19.8277 63.1553 19.9586C62.9522 20.0896 62.852 20.2592 62.8548 20.4677C62.852 20.6467 62.9178 20.7923 63.0514 20.9046C63.1873 21.0168 63.4121 21.109 63.7244 21.1811L64.7745 21.4056C65.3572 21.5311 65.7903 21.7302 66.0734 22.0028C66.3594 22.2753 66.5038 22.632 66.5061 23.0729C66.5038 23.4604 66.3899 23.8024 66.1656 24.099C65.9436 24.393 65.6351 24.6227 65.2396 24.7884C64.8441 24.9541 64.3898 25.0369 63.8767 25.0369C63.1233 25.0369 62.5167 24.8793 62.0572 24.564C61.5977 24.246 61.3236 23.8037 61.2356 23.2373L62.6502 23.101C62.7147 23.3789 62.851 23.5886 63.0594 23.7303C63.2677 23.8719 63.5391 23.9427 63.873 23.9427C64.2177 23.9427 64.4942 23.8719 64.7026 23.7303C64.9137 23.5886 65.0191 23.4136 65.0191 23.2052C65.0191 23.0289 64.9509 22.8832 64.815 22.7683C64.6814 22.6534 64.4726 22.5652 64.1895 22.5038L63.1393 22.2834C62.5487 22.1604 62.1122 21.9534 61.8286 21.6621C61.5455 21.3681 61.4054 20.9968 61.4077 20.5478C61.4054 20.1684 61.5079 19.8397 61.7167 19.5618C61.9274 19.2812 62.2204 19.0648 62.5943 18.9125C62.971 18.7575 63.4055 18.68 63.897 18.68C64.6184 18.68 65.186 18.8337 65.6003 19.141C66.017 19.4483 66.2752 19.8638 66.374 20.3875ZM67.7025 24.9167V18.7602H69.1538V24.9167H67.7025ZM68.4319 17.8864C68.2024 17.8864 68.0044 17.8103 67.8389 17.658C67.6734 17.503 67.5906 17.3173 67.5906 17.1009C67.5906 16.8818 67.6734 16.696 67.8389 16.5437C68.0044 16.3888 68.2024 16.3112 68.4319 16.3112C68.6647 16.3112 68.8622 16.3888 69.0254 16.5437C69.191 16.696 69.2737 16.8818 69.2737 17.1009C69.2737 17.3173 69.191 17.503 69.0254 17.658C68.8622 17.8103 68.6647 17.8864 68.4319 17.8864ZM73.3229 27.3536C72.8018 27.3536 72.3546 27.2828 71.9802 27.1412C71.6064 27.0023 71.3058 26.8152 71.0787 26.58C70.8515 26.3449 70.6935 26.0844 70.6056 25.7985L71.912 25.4818C71.9708 25.6021 72.0564 25.721 72.1688 25.8385C72.2807 25.9588 72.4317 26.0576 72.6217 26.1351C72.814 26.2153 73.0558 26.2554 73.3469 26.2554C73.7584 26.2554 74.0993 26.1552 74.3693 25.9548C74.6392 25.757 74.7742 25.4311 74.7742 24.9768V23.8104H74.7018C74.627 23.9601 74.5174 24.1137 74.373 24.2714C74.2315 24.429 74.0434 24.5613 73.8082 24.6682C73.5754 24.7751 73.2829 24.8285 72.9302 24.8285C72.4571 24.8285 72.0282 24.7176 71.6435 24.4958C71.2616 24.2714 70.9569 23.9374 70.7297 23.4938C70.5054 23.0476 70.393 22.4891 70.393 21.8184C70.393 21.1424 70.5054 20.5719 70.7297 20.1069C70.9569 19.6393 71.263 19.2853 71.6477 19.0448C72.0324 18.8016 72.4613 18.68 72.9344 18.68C73.2951 18.68 73.5914 18.7415 73.8242 18.8644C74.0594 18.9847 74.2461 19.1303 74.3853 19.3013C74.524 19.4696 74.6298 19.6286 74.7018 19.7783H74.7822V18.7602H76.2128V25.0169C76.2128 25.5433 76.0872 25.9788 75.8361 26.3235C75.585 26.6682 75.2417 26.9261 74.8062 27.0971C74.3707 27.2681 73.8759 27.3536 73.3229 27.3536ZM73.3351 23.6902C73.6422 23.6902 73.9042 23.6154 74.1205 23.4658C74.3373 23.3161 74.5014 23.101 74.6138 22.8204C74.7258 22.5399 74.7822 22.2032 74.7822 21.8104C74.7822 21.4229 74.7258 21.0836 74.6138 20.7923C74.5043 20.5011 74.3411 20.2753 74.1247 20.115C73.9108 19.952 73.6479 19.8705 73.3351 19.8705C73.0116 19.8705 72.7416 19.9546 72.5253 20.123C72.309 20.2913 72.1458 20.5224 72.0362 20.8164C71.9271 21.1076 71.8721 21.439 71.8721 21.8104C71.8721 22.1871 71.9271 22.5171 72.0362 22.8004C72.1486 23.081 72.3132 23.3001 72.5295 23.4577C72.7487 23.6127 73.0172 23.6902 73.3351 23.6902ZM79.1507 21.3093V24.9167H77.6998V18.7602H79.0867V19.8063H79.1587C79.3007 19.4616 79.5264 19.1877 79.8364 18.9847C80.1486 18.7816 80.5352 18.68 80.9947 18.68C81.4193 18.68 81.7894 18.7709 82.105 18.9526C82.4229 19.1343 82.6684 19.3975 82.8424 19.7422C83.0188 20.0869 83.1053 20.5051 83.103 20.9968V24.9167H81.6521V21.2212C81.6521 20.8097 81.5449 20.4877 81.3314 20.2553C81.1202 20.0227 80.8277 19.9065 80.4534 19.9065C80.1994 19.9065 79.9737 19.9626 79.7762 20.0748C79.581 20.1844 79.4272 20.3434 79.3153 20.5519C79.2057 20.7602 79.1507 21.0128 79.1507 21.3093ZM91.9025 18.9646C91.8653 18.6146 91.7078 18.342 91.4298 18.147C91.1542 17.9519 90.7964 17.8544 90.3557 17.8544C90.0458 17.8544 89.7796 17.9011 89.5581 17.9946C89.3361 18.0882 89.1664 18.2151 89.0488 18.3754C88.9312 18.5357 88.871 18.7188 88.8687 18.9245C88.8687 19.0956 88.9072 19.2439 88.9848 19.3694C89.0648 19.495 89.1729 19.6019 89.3093 19.6901C89.4457 19.7756 89.5967 19.8477 89.7622 19.9065C89.9282 19.9653 90.0952 20.0147 90.2635 20.0548L91.0329 20.2472C91.3428 20.3194 91.641 20.4169 91.9269 20.5398C92.2152 20.6627 92.4729 20.8177 92.7001 21.0047C92.93 21.1918 93.1116 21.4176 93.2456 21.6821C93.3792 21.9467 93.4459 22.2566 93.4459 22.612C93.4459 23.093 93.3227 23.5165 93.0772 23.8826C92.8313 24.246 92.4757 24.5306 92.0106 24.7363C91.5488 24.9394 90.9887 25.0409 90.3312 25.0409C89.6931 25.0409 89.1386 24.9421 88.6683 24.7443C88.2004 24.5466 87.8345 24.258 87.5697 23.8786C87.3083 23.4991 87.1662 23.0369 87.1451 22.4918H88.6081C88.6293 22.7777 88.7177 23.0155 88.8724 23.2052C89.0276 23.3949 89.2294 23.5365 89.4777 23.6301C89.7288 23.7236 90.0096 23.7704 90.3195 23.7704C90.6426 23.7704 90.9262 23.7222 91.1693 23.6261C91.4148 23.5272 91.6076 23.3909 91.7463 23.2173C91.8851 23.0409 91.9561 22.8351 91.9589 22.6C91.9561 22.3862 91.8935 22.2099 91.7703 22.0709C91.6476 21.9293 91.475 21.8117 91.2535 21.7182C91.0343 21.622 90.7775 21.5365 90.4836 21.4617L89.5501 21.2212C88.8738 21.0475 88.3396 20.7843 87.9464 20.4316C87.5566 20.0762 87.3614 19.6046 87.3614 19.0167C87.3614 18.5331 87.4926 18.1096 87.7541 17.7461C88.0189 17.3827 88.3782 17.1009 88.8324 16.9004C89.2867 16.6974 89.8012 16.5958 90.3755 16.5958C90.9581 16.5958 91.4684 16.6974 91.9067 16.9004C92.3474 17.1009 92.6935 17.3801 92.9446 17.7381C93.1958 18.0935 93.3256 18.5024 93.3335 18.9646H91.9025ZM95.6093 27.2254C95.4113 27.2254 95.2283 27.2093 95.06 27.1772C94.8944 27.1479 94.7623 27.1131 94.663 27.073L94.9998 25.9427C95.2109 26.0042 95.3995 26.0336 95.5651 26.0309C95.7306 26.0282 95.8764 25.9761 96.0019 25.8746C96.1303 25.7757 96.2385 25.6101 96.3264 25.3776L96.4511 25.0449L94.2182 18.7602H95.7574L97.1763 23.4096H97.2407L98.6633 18.7602H100.206L97.7415 25.6622C97.6268 25.9882 97.4744 26.2674 97.2844 26.4999C97.0949 26.735 96.8626 26.9141 96.587 27.037C96.3147 27.1626 95.9888 27.2254 95.6093 27.2254ZM106.076 20.3875L104.754 20.5318C104.716 20.3982 104.651 20.2726 104.557 20.155C104.467 20.0375 104.343 19.9426 104.189 19.8705C104.033 19.7983 103.844 19.7623 103.619 19.7623C103.317 19.7623 103.064 19.8277 102.858 19.9586C102.655 20.0896 102.554 20.2592 102.557 20.4677C102.554 20.6467 102.62 20.7923 102.754 20.9046C102.89 21.0168 103.115 21.109 103.427 21.1811L104.477 21.4056C105.06 21.5311 105.492 21.7302 105.776 22.0028C106.062 22.2753 106.206 22.632 106.209 23.0729C106.206 23.4604 106.092 23.8024 105.868 24.099C105.646 24.393 105.338 24.6227 104.942 24.7884C104.547 24.9541 104.092 25.0369 103.579 25.0369C102.826 25.0369 102.219 24.8793 101.76 24.564C101.3 24.246 101.026 23.8037 100.938 23.2373L102.353 23.101C102.417 23.3789 102.553 23.5886 102.762 23.7303C102.97 23.8719 103.241 23.9427 103.575 23.9427C103.92 23.9427 104.197 23.8719 104.405 23.7303C104.616 23.5886 104.722 23.4136 104.722 23.2052C104.722 23.0289 104.653 22.8832 104.517 22.7683C104.383 22.6534 104.175 22.5652 103.892 22.5038L102.842 22.2834C102.251 22.1604 101.814 21.9534 101.531 21.6621C101.248 21.3681 101.108 20.9968 101.11 20.5478C101.108 20.1684 101.21 19.8397 101.419 19.5618C101.63 19.2812 101.922 19.0648 102.297 18.9125C102.673 18.7575 103.107 18.68 103.599 18.68C104.321 18.68 104.888 18.8337 105.303 19.141C105.719 19.4483 105.978 19.8638 106.076 20.3875ZM110.479 18.7602V19.8825H106.94V18.7602H110.479ZM107.814 17.2852H109.265V23.0649C109.265 23.26 109.294 23.4096 109.353 23.5138C109.415 23.6154 109.494 23.6849 109.594 23.7222C109.692 23.7597 109.802 23.7783 109.922 23.7783C110.013 23.7783 110.096 23.7717 110.171 23.7583C110.248 23.745 110.307 23.733 110.347 23.7222L110.592 24.8566C110.514 24.8833 110.403 24.9127 110.259 24.9448C110.117 24.9768 109.944 24.9955 109.738 25.0009C109.375 25.0115 109.047 24.9567 108.756 24.8365C108.465 24.7136 108.234 24.5239 108.062 24.2674C107.894 24.0109 107.811 23.6902 107.814 23.3054V17.2852ZM114.352 25.0369C113.735 25.0369 113.202 24.9087 112.753 24.6521C112.307 24.393 111.963 24.0269 111.723 23.5539C111.482 23.0783 111.362 22.5185 111.362 21.8745C111.362 21.2413 111.482 20.6854 111.723 20.2071C111.966 19.7262 112.305 19.3521 112.741 19.0849C113.176 18.815 113.688 18.68 114.276 18.68C114.655 18.68 115.013 18.7415 115.35 18.8644C115.69 18.9847 115.989 19.1717 116.248 19.4256C116.51 19.6794 116.716 20.0027 116.865 20.3955C117.015 20.7856 117.09 21.2506 117.09 21.7904V22.2352H112.043V21.2573H115.699C115.696 20.9794 115.636 20.7322 115.518 20.5157C115.401 20.2966 115.237 20.1243 115.025 19.9987C114.817 19.8731 114.574 19.8103 114.296 19.8103C113.999 19.8103 113.739 19.8825 113.514 20.0268C113.29 20.1684 113.115 20.3554 112.989 20.5879C112.866 20.8177 112.804 21.0702 112.801 21.3454V22.1992C112.801 22.5573 112.866 22.8645 112.998 23.121C113.128 23.3749 113.311 23.57 113.546 23.7062C113.782 23.8398 114.057 23.9066 114.372 23.9066C114.583 23.9066 114.774 23.8773 114.946 23.8185C115.116 23.757 115.265 23.6675 115.39 23.5499C115.516 23.4324 115.611 23.2867 115.675 23.113L117.029 23.2653C116.944 23.6234 116.781 23.936 116.541 24.2033C116.303 24.4678 115.998 24.6735 115.627 24.8205C115.255 24.9648 114.83 25.0369 114.352 25.0369ZM118.317 24.9167V18.7602H119.704V19.8063H119.776C119.904 19.4536 120.117 19.1784 120.414 18.9806C120.71 18.7802 121.064 18.68 121.475 18.68C121.893 18.68 122.244 18.7816 122.53 18.9847C122.818 19.1851 123.021 19.459 123.139 19.8063H123.203C123.339 19.4643 123.569 19.1917 123.892 18.9887C124.219 18.7829 124.605 18.68 125.051 18.68C125.617 18.68 126.08 18.8591 126.437 19.2171C126.796 19.5752 126.974 20.0976 126.974 20.7843V24.9167H125.52V21.0087C125.52 20.6266 125.418 20.3474 125.215 20.1711C125.012 19.992 124.764 19.9025 124.47 19.9025C124.119 19.9025 123.846 20.0121 123.648 20.2312C123.453 20.4476 123.355 20.7295 123.355 21.0769V24.9167H121.933V20.9486C121.933 20.6307 121.836 20.3768 121.644 20.1871C121.454 19.9974 121.206 19.9025 120.898 19.9025C120.69 19.9025 120.5 19.956 120.329 20.0629C120.158 20.1671 120.022 20.3154 119.92 20.5077C119.819 20.6975 119.768 20.9192 119.768 21.1731V24.9167H118.317Z" fill="black"/>
</svg>
