<svg width="24" height="18" viewBox="0 0 24 18" fill="none" xmlns="http://www.w3.org/2000/svg">
<path d="M0 0C2.38695 2.84641e-08 4.67613 0.94821 6.36396 2.63603C8.05178 4.32386 9 6.61304 9 8.99999C9 11.3869 8.0518 13.6761 6.36397 15.3639C4.67615 17.0518 2.38697 18 2.28882e-05 18L0 9V0Z" fill="white"/>
<path d="M9 0C11.3869 2.84641e-08 13.6761 0.94821 15.364 2.63603C17.0518 4.32386 18 6.61304 18 8.99999C18 11.3869 17.0518 13.6761 15.364 15.3639C13.6762 17.0518 11.387 18 9.00002 18L9 9V0Z" fill="white"/>
<circle cx="20.7" cy="8.9998" r="2.7" fill="white"/>
</svg>
