<svg width="160" height="98" viewBox="0 0 160 98" fill="none" xmlns="http://www.w3.org/2000/svg">
<rect width="160" height="98" rx="49" fill="white" fill-opacity="0.1"/>
<circle cx="47.5" cy="49" r="7.5" fill="white"/>
<path d="M80 24C73.3696 24 67.0107 26.6339 62.3223 31.3223C57.6339 36.0107 55 42.3696 55 49C55 55.6304 57.6339 61.9892 62.3223 66.6776C67.0107 71.3661 73.3695 74 79.9999 74L80 49V24Z" fill="#F9FAF9"/>
<path d="M105 24C98.3696 24 92.0107 26.6339 87.3223 31.3223C82.6339 36.0107 80 42.3696 80 49C80 55.6304 82.6339 61.9892 87.3223 66.6776C92.0107 71.3661 98.3695 74 105 74L105 49V24Z" fill="white"/>
<circle cx="112.5" cy="49" r="7.5" fill="white"/>
</svg>
