<svg width="16" height="16" viewBox="0 0 16 16" fill="none" xmlns="http://www.w3.org/2000/svg">
<rect width="16" height="16" rx="2" fill="#5547FF"/>
<path d="M3.125 9.08289C3.74632 9.08289 4.25 8.59815 4.25 8.00019C4.25 7.40222 3.74632 6.91748 3.125 6.91748C2.50368 6.91748 2 7.40222 2 8.00019C2 8.59815 2.50368 9.08289 3.125 9.08289Z" fill="black"/>
<path d="M8 4.39111C7.00544 4.39111 6.0516 4.77135 5.34834 5.44817C4.64508 6.12499 4.25 7.04297 4.25 8.00014C4.25 8.95731 4.64508 9.87527 5.34834 10.5521C6.0516 11.2289 7.00542 11.6092 7.99998 11.6092L8 8.00014V4.39111Z" fill="black"/>
<path d="M11.75 4.39111C10.7554 4.39111 9.8016 4.77135 9.09834 5.44817C8.39508 6.12499 8 7.04297 8 8.00014C8 8.95731 8.39508 9.87527 9.09834 10.5521C9.8016 11.2289 10.7554 11.6092 11.75 11.6092L11.75 8.00014V4.39111Z" fill="black"/>
<path d="M12.875 9.08289C13.4963 9.08289 14 8.59815 14 8.00019C14 7.40222 13.4963 6.91748 12.875 6.91748C12.2537 6.91748 11.75 7.40222 11.75 8.00019C11.75 8.59815 12.2537 9.08289 12.875 9.08289Z" fill="black"/>
</svg>
